<svg xmlns="http://www.w3.org/2000/svg" viewBox="0 0 254 207.087"><defs><style>.a{fill:#22386c;}.b{fill:#e42229;}.c{fill:#2b2a29;font-size:28px;font-family:TrajanPro-Regular, Trajan Pro;}</style></defs><g transform="translate(-111.852 -250.887)"><g transform="translate(157.836 250.886)"><path class="a" d="M110.808,46.58c-2.344,9.3-4.627,18.359-6.964,27.625h58.781c.074.342.182.539.141.7-1.316,4.98-2.669,9.952-3.972,14.936a29.929,29.929,0,0,1-10.519,16.522,25.978,25.978,0,0,1-16.885,5.457c-10.591-.109-21.182-.16-31.774-.229a17.875,17.875,0,0,0-2.034.07,5.761,5.761,0,0,0-4.943,3.415,17.692,17.692,0,0,0-1,2.873c-1.976,7.472-3.881,14.964-5.9,22.425a31.354,31.354,0,0,1-7.332,13.673A26.292,26.292,0,0,1,59.791,162.5c-9.085.345-18.191.122-27.289.139a2.575,2.575,0,0,1-.53-.152,16.918,16.918,0,0,1,.281-1.682q12.534-46.55,25.128-93.081a39.1,39.1,0,0,1,3.331-8.27C64.635,52.209,70.958,48.251,79,46.981a41,41,0,0,1,6.077-.462c7.943-.056,15.888-.032,23.831-.033C109.449,46.487,109.985,46.538,110.808,46.58Z" transform="translate(-4.836 -7.03)"/><path class="a" d="M125.142,39.081c.9-3.387,1.661-6.543,2.581-9.652,1.288-4.351,2.473-8.752,4.091-12.982C135.673,6.355,144.029.784,154.809.34,170.35-.3,185.889.166,201.429.131c.588,0,1.176.08,1.722.12.048.283.117.423.082.526q-4.084,12.03-8.192,24.051a21.855,21.855,0,0,1-1.055,2.423c-3.62,7.47-9.652,11.584-17.874,11.722-16.351.275-32.708.182-49.063.235C126.515,39.21,125.983,39.14,125.142,39.081Z" transform="translate(-18.927 0)"/><path class="b" d="M77.726.7a4.224,4.224,0,0,1-.008.94c-2.7,7.879-5.364,15.775-8.162,23.621a20.908,20.908,0,0,1-19.964,14.04c-16.214,0-32.428-.143-48.642-.237-.266,0-.531-.053-.951-.1a12.826,12.826,0,0,1,.2-1.563c1.286-5.126,2.478-10.278,3.912-15.362C7.27,10.835,14.277,3.389,25.793.651A27.48,27.48,0,0,1,32.445.01C45.6.184,58.762.465,71.92.7,73.815.733,75.71.7,77.726.7Z" transform="translate(0 -0.001)"/></g><text class="c" transform="translate(238.852 450.974)"><tspan x="-126.364" y="0">Fabric Terminal</tspan></text></g></svg>